<?xml version="1.0" encoding="iso-8859-1"?>
<!-- Uploaded to: SVG Repo, www.svgrepo.com, Generator: SVG Repo Mixer Tools -->
<svg fill="#000000" height="800px" width="800px" version="1.1" id="Layer_1" xmlns="http://www.w3.org/2000/svg" xmlns:xlink="http://www.w3.org/1999/xlink" 
	 viewBox="0 0 472.615 472.615" xml:space="preserve">
<g>
	<g>
		<path d="M363.729,37.404v43.57h-55.932l-99.471-29.435H50.097c-17.653,0-31.964,14.309-31.964,31.964
			c0,17.654,14.31,31.964,31.964,31.964H38.008c-17.653,0-31.964,14.31-31.964,31.965c0,17.651,14.31,31.964,31.964,31.964
			c-17.653,0-31.964,14.31-31.964,31.964c0,17.652,14.31,31.965,31.964,31.965h-6.045C14.31,243.323,0,257.632,0,275.284
			c0,17.653,14.31,31.967,31.964,31.967l129.596,0.069c-14.324,30.772-17.833,64.315-17.921,89.325
			c-0.074,21.235,17.212,38.566,38.445,38.566c21.22,0,38.423-17.201,38.423-38.423v-4.209
			c14.21-94.394,100.485-115.709,100.485-115.709h42.737v41.166h108.887V37.404H363.729z"/>
	</g>
</g>
</svg>