<svg fill="#7d93bd" height="800px" width="800px" version="1.1" id="Layer_1" xmlns="http://www.w3.org/2000/svg"
     xmlns:xlink="http://www.w3.org/1999/xlink"
     viewBox="0 0 472.615 472.615" xml:space="preserve">

	<g id="dislikePost">
		<path d="M363.729,37.404v43.57h-55.932l-99.471-29.435H50.097c-17.653,0-31.964,14.309-31.964,31.964
			c0,17.654,14.31,31.964,31.964,31.964H38.008c-17.653,0-31.964,14.31-31.964,31.965c0,17.651,14.31,31.964,31.964,31.964
			c-17.653,0-31.964,14.31-31.964,31.964c0,17.652,14.31,31.965,31.964,31.965h-6.045C14.31,243.323,0,257.632,0,275.284
			c0,17.653,14.31,31.967,31.964,31.967l129.596,0.069c-14.324,30.772-17.833,64.315-17.921,89.325
			c-0.074,21.235,17.212,38.566,38.445,38.566c21.22,0,38.423-17.201,38.423-38.423v-4.209
			c14.21-94.394,100.485-115.709,100.485-115.709h42.737v41.166h108.887V37.404H363.729z"/>
	</g>

    <g id="deletePost">
		<path
                d="M682.4 867.2c-11.2 0-20-8.8-20-20V372c0-11.2 8.8-20 20-20s20 8.8 20 20v475.2c0.8 11.2-8.8 20-20 20zM367.2
                867.2c-11.2 0-20-8.8-20-20V372c0-11.2 8.8-20 20-20s20 8.8 20 20v475.2c0.8 11.2-8.8 20-20 20zM524.8 867.2c-11.2 0-20-8.8-20-20V372c0-11.2 8.8-20 20-20s20 8.8 20 20v475.2c0.8 11.2-8.8 20-20 20zM655.2 213.6v-48.8c0-17.6-14.4-32-32-32H418.4c-18.4 0-32 14.4-32 32.8V208h-40v-42.4c0-40 32.8-72.8 72.8-72.8H624c40 0 72.8 32.8 72.8 72.8v48.8h-41.6z"
                fill=""/>
	</g>

    <g id="likePost">
		    <path d="M1863.059 1016.47c0-124.574-101.308-225.882-225.883-225.882H1203.37c-19.651 0-37.044-9.374-47.66-25.863-10.391-16.15-11.86-35.577-3.84-53.196 54.776-121.073 94.87-247.115 119.378-374.513 15.925-83.576-5.873-169.072-60.085-234.578C1157.29 37.384 1078.005 0 993.751 0H846.588v56.47c0 254.457-155.068 473.224-285.063 612.029-72.734 77.477-176.98 122.09-285.967 122.09H56v734.117C56 1742.682 233.318 1920 451.294 1920h960c124.574 0 225.882-101.308 225.882-225.882 0-46.42-14.117-89.676-38.174-125.59 87.869-30.947 151.116-114.862 151.116-213.234 0-46.419-14.118-89.675-38.174-125.59 87.868-30.946 151.115-114.862 151.115-213.233"
                  fill-rule="evenodd"/>

	</g>

    <g id="messagesNavBar">
		   <path opacity="0.4"
                 d="M18.4698 16.83L18.8598 19.99C18.9598 20.82 18.0698 21.4 17.3598 20.97L13.1698 18.48C12.7098 18.48 12.2599 18.45 11.8199 18.39C12.5599 17.52 12.9998 16.42 12.9998 15.23C12.9998 12.39 10.5398 10.09 7.49985 10.09C6.33985 10.09 5.26985 10.42 4.37985 11C4.34985 10.75 4.33984 10.5 4.33984 10.24C4.33984 5.68999 8.28985 2 13.1698 2C18.0498 2 21.9998 5.68999 21.9998 10.24C21.9998 12.94 20.6098 15.33 18.4698 16.83Z"
                 stroke="#292D32" stroke-width="1.5" stroke-linecap="round" stroke-linejoin="round"/>
        <path d="M13 15.2298C13 16.4198 12.56 17.5198 11.82 18.3898C10.83 19.5898 9.26 20.3598 7.5 20.3598L4.89 21.9098C4.45 22.1798 3.89 21.8098 3.95 21.2998L4.2 19.3298C2.86 18.3998 2 16.9098 2 15.2298C2 13.4698 2.94 11.9198 4.38 10.9998C5.27 10.4198 6.34 10.0898 7.5 10.0898C10.54 10.0898 13 12.3898 13 15.2298Z"
              stroke="#292D32" stroke-width="1.5" stroke-linecap="round" stroke-linejoin="round"/>

	</g>

    <g id="profileNavBar">
        <path d="M338.083123,1964.99998 C338.083123,1962.79398 336.251842,1960.99998 334,1960.99998 C331.748158,1960.99998 329.916877,1962.79398 329.916877,1964.99998 C329.916877,1967.20599 331.748158,1968.99999 334,1968.99999 C336.251842,1968.99999 338.083123,1967.20599 338.083123,1964.99998 M341.945758,1979 L340.124685,1979 C339.561214,1979 339.103904,1978.552 339.103904,1978 C339.103904,1977.448 339.561214,1977 340.124685,1977 L340.5626,1977 C341.26898,1977 341.790599,1976.303 341.523154,1975.662 C340.286989,1972.69799 337.383888,1970.99999 334,1970.99999 C330.616112,1970.99999 327.713011,1972.69799 326.476846,1975.662 C326.209401,1976.303 326.73102,1977 327.4374,1977 L327.875315,1977 C328.438786,1977 328.896096,1977.448 328.896096,1978 C328.896096,1978.552 328.438786,1979 327.875315,1979 L326.054242,1979 C324.778266,1979 323.773818,1977.857 324.044325,1976.636 C324.787453,1973.27699 327.107688,1970.79799 330.163906,1969.67299 C328.769519,1968.57399 327.875315,1966.88999 327.875315,1964.99998 C327.875315,1961.44898 331.023403,1958.61898 334.733941,1959.04198 C337.422678,1959.34798 339.650022,1961.44698 340.05323,1964.06998 C340.400296,1966.33099 339.456073,1968.39599 337.836094,1969.67299 C340.892312,1970.79799 343.212547,1973.27699 343.955675,1976.636 C344.226182,1977.857 343.221734,1979 341.945758,1979 M337.062342,1978 C337.062342,1978.552 336.605033,1979 336.041562,1979 L331.958438,1979 C331.394967,1979 330.937658,1978.552 330.937658,1978 C330.937658,1977.448 331.394967,1977 331.958438,1977 L336.041562,1977 C336.605033,1977 337.062342,1977.448 337.062342,1978"
              id="profile_round-[#1346]">
        </path>
    </g>

    <g id="settingsNaBar">
        <path class="cls-1"
              d="M39.23,26a16.52,16.52,0,0,0,.14-2,16.52,16.52,0,0,0-.14-2l4.33-3.39a1,1,0,0,0,.25-1.31l-4.1-7.11a1,1,0,0,0-1.25-.44l-5.11,2.06a15.68,15.68,0,0,0-3.46-2l-.77-5.43a1,1,0,0,0-1-.86H19.9a1,1,0,0,0-1,.86l-.77,5.43a15.36,15.36,0,0,0-3.46,2L9.54,9.75a1,1,0,0,0-1.25.44L4.19,17.3a1,1,0,0,0,.25,1.31L8.76,22a16.66,16.66,0,0,0-.14,2,16.52,16.52,0,0,0,.14,2L4.44,29.39a1,1,0,0,0-.25,1.31l4.1,7.11a1,1,0,0,0,1.25.44l5.11-2.06a15.68,15.68,0,0,0,3.46,2l.77,5.43a1,1,0,0,0,1,.86h8.2a1,1,0,0,0,1-.86l.77-5.43a15.36,15.36,0,0,0,3.46-2l5.11,2.06a1,1,0,0,0,1.25-.44l4.1-7.11a1,1,0,0,0-.25-1.31ZM24,31.18A7.18,7.18,0,1,1,31.17,24,7.17,7.17,0,0,1,24,31.18Z"/>
    </g>

    <g id="usersNavBar">
        <path id="Vector"
              d="M17 20C17 18.3431 14.7614 17 12 17C9.23858 17 7 18.3431 7 20M21 17.0004C21 15.7702 19.7659 14.7129 18 14.25M3 17.0004C3 15.7702 4.2341 14.7129 6 14.25M18 10.2361C18.6137 9.68679 19 8.8885 19 8C19 6.34315 17.6569 5 16 5C15.2316 5 14.5308 5.28885 14 5.76389M6 10.2361C5.38625 9.68679 5 8.8885 5 8C5 6.34315 6.34315 5 8 5C8.76835 5 9.46924 5.28885 10 5.76389M12 14C10.3431 14 9 12.6569 9 11C9 9.34315 10.3431 8 12 8C13.6569 8 15 9.34315 15 11C15 12.6569 13.6569 14 12 14Z"
              stroke="#000000" stroke-width="2" stroke-linecap="round" stroke-linejoin="round"/>
    </g>

    <g id="work">
        <path d="M108.327,28.998c11.331,0,20.516,9.185,20.516,20.516s-9.185,20.516-20.516,20.516S87.81,60.845,87.81,49.514
	S96.996,28.998,108.327,28.998z M33.069,153.324l-0.189-0.189l0,0c-0.851-0.567-1.607-1.04-2.269-1.796l2.269,26L4.327,217.804
	c-4.065,5.862-2.647,13.804,3.025,17.869c5.862,4.065,13.804,2.647,17.869-3.025l30.822-44.436c1.607-2.269,2.647-5.295,2.269-8.32
	l-1.04-12.574L33.069,153.324z M117.876,237.942h122.341l-22.88-71.381c0,0-12.953,3.215-38.574,30.443
	c-0.567,0.567-1.229,1.229-1.796,1.796l-61.832-35.738c1.04-1.985,1.229-4.255,0.851-6.713L94.05,75.041
	c-1.796-7.942-8.887-13.993-17.207-13.993H35.905c-3.025,0-6.051,1.607-7.753,4.255L7.731,100.757
	c-2.647,4.255-1.04,9.738,3.215,12.196l22.88,13.142l-3.025,5.105c-3.687,6.051-1.607,13.804,4.633,17.207L86.77,178v46.894
	c0,7.091,5.673,12.764,12.764,12.764s12.764-5.673,12.764-12.764v-53.512l56.821,32.902c-11.724,6.713-25.149,7.942-34.698,13.614
	C122.697,224.895,117.876,237.942,117.876,237.942z M38.174,118.626l-15.033-8.698l0,0l17.869-30.822h20.044L38.174,118.626z
	 M71.171,137.724l14.182-24.771l10.589,38.952L71.171,137.724z M203.459,2c-27.879,0-50.541,22.621-50.541,50.459
	c0,27.879,22.662,50.541,50.541,50.541S254,80.338,254,52.459C253.918,24.621,231.257,2,203.459,2z M203.459,93.014
	c-22.377,0-40.555-18.178-40.555-40.555s18.178-40.555,40.555-40.555s40.555,18.178,40.555,40.555
	C243.77,74.836,225.591,93.014,203.459,93.014z M228.648,42.596c-0.937-1.549-2.894-2.609-5.136-1.467l-17.893,7.989V27.963
	c0-1.141-0.408-2.16-1.141-2.935l-0.041-0.041c-0.734-0.652-1.59-0.937-2.609-0.937c-1.956,0-3.994,1.467-3.994,3.913v27.675
	c0,1.508,0.856,2.935,2.201,3.668c0.693,0.326,1.304,0.489,1.875,0.489c0.611,0,1.304-0.204,1.956-0.489l23.11-11.046
	c1.019-0.53,1.753-1.386,2.079-2.405C229.3,44.797,229.178,43.615,228.648,42.596L228.648,42.596z"/>
    </g>

</svg>